<svg width="25" height="24" viewBox="0 0 25 24" fill="none" xmlns="http://www.w3.org/2000/svg">
<path d="M23.25 6.1V3.25C23.25 1.875 22.125 0.75 20.75 0.75H3.25C1.8625 0.75 0.75 1.875 0.75 3.25V20.75C0.75 22.125 1.8625 23.25 3.25 23.25H20.75C22.125 23.25 23.25 22.125 23.25 20.75V17.9C23.9875 17.4625 24.5 16.675 24.5 15.75V8.25C24.5 7.325 23.9875 6.5375 23.25 6.1ZM22 8.25V15.75H13.25V8.25H22ZM3.25 20.75V3.25H20.75V5.75H13.25C11.875 5.75 10.75 6.875 10.75 8.25V15.75C10.75 17.125 11.875 18.25 13.25 18.25H20.75V20.75H3.25Z" fill="#999999"/>
</svg>
