<svg width="41" height="40" viewBox="0 0 41 40" fill="none" xmlns="http://www.w3.org/2000/svg">
<g clip-path="url(#clip0_372_22405)">
<path d="M33.6112 1.66675V6.66675H38.6112V10.0001H33.6112V15.0001H30.2779V10.0001H25.2779V6.66675H30.2779V1.66675H33.6112ZM20.2779 21.6667C18.4446 21.6667 16.9446 20.1667 16.9446 18.3334C16.9446 16.5001 18.4446 15.0001 20.2779 15.0001C22.1112 15.0001 23.6112 16.5001 23.6112 18.3334C23.6112 20.1667 22.1112 21.6667 20.2779 21.6667ZM21.9446 5.10008V8.46675C21.3933 8.37963 20.8361 8.33505 20.2779 8.33341C14.6946 8.33341 10.2779 12.6167 10.2779 18.6667C10.2779 22.5667 13.5279 27.7334 20.2779 33.9001C27.0279 27.7334 30.2779 22.5834 30.2779 18.6667V18.3334H33.6112V18.6667C33.6112 24.2001 29.1612 30.7501 20.2779 38.3334C11.3946 30.7501 6.94458 24.2001 6.94458 18.6667C6.94458 10.3667 13.2779 5.00008 20.2779 5.00008C20.8446 5.00008 21.3946 5.03341 21.9446 5.10008Z" fill="#559999"/>
</g>
<defs>
<clipPath id="clip0_372_22405">
<rect width="40" height="40" fill="white" transform="translate(0.277832)"/>
</clipPath>
</defs>
</svg>
