<svg width="17" height="17" viewBox="0 0 17 17" fill="none" xmlns="http://www.w3.org/2000/svg">
<g clip-path="url(#clip0_218_1102)">
<path d="M14.2671 7.02168C14.138 7.02168 13.7051 7.02644 13.5837 7.03528L11.1199 7.11416C11.0929 7.11416 11.0665 7.10056 11.0553 7.07268L7.35961 0.34204C7.30666 0.23896 7.23176 0.153371 7.14209 0.0934793C7.05242 0.0335872 6.95097 0.00139899 6.84749 0L5.94761 0C5.73525 0 5.6631 0.2584 5.73877 0.49912L7.64119 7.09512C7.65996 7.15632 7.62593 7.22024 7.57314 7.22024L2.92534 7.3032C2.87673 7.30468 2.82854 7.29245 2.78491 7.26758C2.74128 7.24271 2.70351 7.20593 2.67485 7.1604L1.26989 5.08164C1.21491 4.99423 1.1429 4.9231 1.05971 4.87406C0.97653 4.82502 0.884529 4.79945 0.791206 4.79944H0.153548C0.0467827 4.79944 -0.0253718 4.92456 0.00923893 5.04424L0.764808 8.21848C0.82171 8.39392 0.82171 8.59248 0.764808 8.76792L0.00923893 11.9415C-0.0253718 12.0618 0.0467827 12.1863 0.153548 12.1863H0.787099C0.973645 12.1863 1.15198 12.0802 1.26578 11.9048L2.69714 9.79336C2.72613 9.74807 2.76405 9.71148 2.80773 9.68664C2.8514 9.6618 2.89957 9.64943 2.94821 9.65056L7.56903 9.775C7.62183 9.77976 7.65644 9.8396 7.63767 9.89944L5.73525 16.5009C5.65899 16.7416 5.73115 17 5.94409 17H6.84397C7.05281 17 7.24639 16.8708 7.35668 16.658L11.0547 9.93208C11.0614 9.91922 11.0709 9.90862 11.0822 9.90134C11.0935 9.89406 11.1063 9.89036 11.1193 9.8906L13.5837 9.9688C13.7092 9.97832 14.138 9.9824 14.2671 9.9824C15.9495 9.9824 17.0125 9.3228 17.0125 8.50476C17.0125 7.68672 15.953 7.02236 14.2671 7.02236V7.02168Z" fill="#999999"/>
</g>
<defs>
<clipPath id="clip0_218_1102">
<rect width="17" height="17" fill="white"/>
</clipPath>
</defs>
</svg>
