<svg width="58" height="58" viewBox="0 0 58 58" fill="none" xmlns="http://www.w3.org/2000/svg">
<rect width="58" height="58" rx="29" fill="#D0E3EB"/>
<g clip-path="url(#clip0_372_22378)">
<path d="M43.3333 18.25H37.9583V14.6667C37.9583 12.678 36.3637 11.0834 34.3749 11.0834H23.6249C21.6362 11.0834 20.0416 12.678 20.0416 14.6667V18.25H14.6666C12.6778 18.25 11.0833 19.8446 11.0833 21.8334V41.5417C11.0833 43.5305 12.6778 45.125 14.6666 45.125H43.3333C45.322 45.125 46.9166 43.5305 46.9166 41.5417V21.8334C46.9166 19.8446 45.322 18.25 43.3333 18.25ZM23.6249 14.6667H34.3749V18.25H23.6249V14.6667ZM43.3333 41.5417H14.6666V37.9584H43.3333V41.5417ZM43.3333 32.5834H14.6666V21.8334H20.0416V25.4167H23.6249V21.8334H34.3749V25.4167H37.9583V21.8334H43.3333V32.5834Z" fill="#2A4E63"/>
</g>
<defs>
<clipPath id="clip0_372_22378">
<rect width="43" height="43" fill="white" transform="translate(7.5 7.5)"/>
</clipPath>
</defs>
</svg>
