<svg width="18" height="18" viewBox="0 0 18 18" fill="none" xmlns="http://www.w3.org/2000/svg">
<g clip-path="url(#clip0_5_274)">
<path d="M9.00008 0.013092C4.0478 0.013092 0.0131836 4.04771 0.0131836 8.99998C0.0131836 13.9523 4.0478 17.9869 9.00008 17.9869C13.9523 17.9869 17.987 13.9523 17.987 8.99998C17.987 4.04771 13.9523 0.013092 9.00008 0.013092ZM9.00008 16.9287C4.62747 16.9287 1.07134 13.3726 1.07134 8.99998C1.07134 4.62738 4.62747 1.07125 9.00008 1.07125C13.3727 1.07125 16.9288 4.62738 16.9288 8.99998C16.9288 13.3726 13.3727 16.9287 9.00008 16.9287Z" fill="#808080"/>
<path d="M11.1468 9.10975C10.6989 8.77177 10.0974 8.57849 9.56631 8.43362L9.5179 8.42051V6.22975L9.59707 6.24723C10.0668 6.35261 10.5058 6.559 10.8745 6.84875C10.914 6.8795 10.9668 6.89715 11.0196 6.88824C11.0454 6.88535 11.0704 6.87724 11.093 6.86442C11.1157 6.85159 11.1354 6.83431 11.1512 6.81362L11.5419 6.30875C11.5737 6.26848 11.5882 6.21732 11.5825 6.16638C11.5767 6.11543 11.5511 6.06881 11.5112 6.03665C10.9799 5.6064 10.3302 5.33849 9.57942 5.23748L9.52245 5.22875V4.42102C9.52245 4.31127 9.43454 4.22354 9.3248 4.22354H8.6179C8.50815 4.22354 8.42043 4.31127 8.42043 4.42102V5.2464L8.36328 5.25513C7.73992 5.35177 7.21303 5.59311 6.84429 5.96203C6.47992 6.3264 6.28245 6.79177 6.28245 7.31412C6.28245 8.37228 6.86614 8.94286 8.36765 9.35564L8.41606 9.36875V11.8054L8.33707 11.7879C7.79707 11.6649 7.26581 11.3972 6.84866 11.0372C6.80564 11.0018 6.75058 10.9844 6.69505 10.9887C6.66791 10.991 6.6416 10.9992 6.61805 11.0129C6.5945 11.0265 6.5743 11.0453 6.55891 11.0677L6.17707 11.599C6.11992 11.678 6.12866 11.7923 6.20328 11.858C6.74328 12.363 7.47202 12.6746 8.36328 12.7844L8.42043 12.7931V13.5834C8.42043 13.6931 8.50815 13.7808 8.6179 13.7808H9.3248C9.43454 13.7808 9.52227 13.6931 9.52227 13.5834V12.8197L9.57942 12.8151C10.2907 12.7405 10.8525 12.5077 11.2522 12.1259C11.6517 11.7439 11.8668 11.2126 11.8668 10.598C11.8624 9.96152 11.6297 9.47849 11.1468 9.10975ZM9.51353 9.64976L9.60144 9.67597C10.124 9.84286 10.7209 10.1151 10.7209 10.721C10.7205 10.9671 10.6299 11.2044 10.4663 11.3882C10.2688 11.6123 9.97454 11.7615 9.59252 11.8318L9.51353 11.8449V9.64976ZM7.43252 7.21748C7.43252 6.73026 7.76194 6.36589 8.33252 6.22539L8.41606 6.20337V8.11311L8.32816 8.08253C7.94631 7.9595 7.43252 7.7269 7.43252 7.21748Z" fill="#808080"/>
</g>
<defs>
<clipPath id="clip0_5_274">
<rect width="18" height="18" fill="white"/>
</clipPath>
</defs>
</svg>
