<svg width="45" height="40" viewBox="0 0 45 40" fill="none" xmlns="http://www.w3.org/2000/svg">
<g clip-path="url(#clip0_372_22410)">
<path d="M25.2778 9.16667C27.3148 9.16667 28.9815 7.66667 28.9815 5.83333C28.9815 4 27.3148 2.5 25.2778 2.5C23.2408 2.5 21.5741 4 21.5741 5.83333C21.5741 7.66667 23.2408 9.16667 25.2778 9.16667ZM18.426 14.8333L13.2408 38.3333H17.1297L20.463 25L24.3519 28.3333V38.3333H28.0556V25.8333L24.1667 22.5L25.2778 17.5C27.6852 20 31.3889 21.6667 35.463 21.6667V18.3333C31.9445 18.3333 28.9815 16.6667 27.5 14.3333L25.6482 11.6667C24.6111 10.1833 22.5371 9.58333 20.7408 10.2667L11.3889 13.8333V21.6667H15.0926V16L18.426 14.8333Z" fill="#559999"/>
</g>
<defs>
<clipPath id="clip0_372_22410">
<rect width="44.4444" height="40" fill="white" transform="translate(0.277832)"/>
</clipPath>
</defs>
</svg>
