<svg width="24" height="24" viewBox="0 0 24 24" fill="none" xmlns="http://www.w3.org/2000/svg">
<path d="M12.0738 2.5C6.78375 2.5 2.5 6.79333 2.5 12.0833C2.5 17.3733 6.78375 21.6667 12.0738 21.6667C17.3733 21.6667 21.6667 17.3733 21.6667 12.0833C21.6667 6.79333 17.3733 2.5 12.0738 2.5ZM8.72917 8.25C9.52458 8.25 10.1667 8.89208 10.1667 9.6875C10.1667 10.4829 9.52458 11.125 8.72917 11.125C7.93375 11.125 7.29167 10.4829 7.29167 9.6875C7.29167 8.89208 7.93375 8.25 8.72917 8.25ZM12.0833 17.8333C9.89833 17.8333 8.03917 16.2425 7.29167 14H16.875C16.1275 16.2425 14.2683 17.8333 12.0833 17.8333ZM15.4375 11.125C14.6421 11.125 14 10.4829 14 9.6875C14 8.89208 14.6421 8.25 15.4375 8.25C16.2329 8.25 16.875 8.89208 16.875 9.6875C16.875 10.4829 16.2329 11.125 15.4375 11.125Z" fill="#F9A34B"/>
</svg>
