<svg width="58" height="58" viewBox="0 0 58 58" fill="none" xmlns="http://www.w3.org/2000/svg">
<rect width="58" height="58" rx="29" fill="#DFF5F5"/>
<g clip-path="url(#clip0_372_22380)">
<path d="M30.7917 18.25V23.625H36.1667V27.2084H30.7917V32.5834H27.2084V27.2084H21.8334V23.625H27.2084V18.25H30.7917ZM39.7501 25.775C39.7501 19.2713 35.0022 14.6667 29.0001 14.6667C22.998 14.6667 18.2501 19.2713 18.2501 25.775C18.2501 29.9675 21.7438 35.5217 29.0001 42.1509C36.2563 35.5217 39.7501 29.9675 39.7501 25.775ZM29.0001 11.0834C36.5251 11.0834 43.3334 16.8525 43.3334 25.775C43.3334 31.7234 38.5497 38.7646 29.0001 46.9167C19.4505 38.7646 14.6667 31.7234 14.6667 25.775C14.6667 16.8525 21.4751 11.0834 29.0001 11.0834Z" fill="#73B2B2"/>
</g>
<defs>
<clipPath id="clip0_372_22380">
<rect width="43" height="43" fill="white" transform="translate(7.5 7.5)"/>
</clipPath>
</defs>
</svg>
