<svg width="20" height="21" viewBox="0 0 20 21" fill="none" xmlns="http://www.w3.org/2000/svg">
<path d="M16.8609 9.65577C16.8609 15.0346 11.3517 18.3484 10.2068 18.9795C10.1434 19.0145 10.0722 19.0329 9.99974 19.0329C9.9273 19.0329 9.85605 19.0145 9.79263 18.9795C8.64688 18.3484 3.1394 15.0346 3.1394 9.65577C3.1394 5.36779 5.71219 2.36621 10.0002 2.36621C14.2881 2.36621 16.8609 5.36779 16.8609 9.65577Z" stroke="#1B3A4B" stroke-width="1.4" stroke-linecap="round" stroke-linejoin="round"/>
<path d="M6.56982 9.22677C6.56982 10.1366 6.93124 11.0091 7.57456 11.6524C8.21788 12.2957 9.09041 12.6571 10.0002 12.6571C10.91 12.6571 11.7825 12.2957 12.4258 11.6524C13.0692 11.0091 13.4306 10.1366 13.4306 9.22677C13.4306 8.31697 13.0692 7.44444 12.4258 6.80112C11.7825 6.1578 10.91 5.79639 10.0002 5.79639C9.09041 5.79639 8.21788 6.1578 7.57456 6.80112C6.93124 7.44444 6.56982 8.31697 6.56982 9.22677V9.22677Z" stroke="#1B3A4B" stroke-width="1.4" stroke-linecap="round" stroke-linejoin="round"/>
</svg>
