<svg width="24" height="24" viewBox="0 0 24 24" fill="none" xmlns="http://www.w3.org/2000/svg">
<path d="M22.5413 10.0834C22.5413 9.57504 22.3394 9.08753 21.98 8.72809C21.6205 8.36864 21.133 8.16671 20.6247 8.16671H14.568L15.488 3.78712C15.5072 3.69129 15.5168 3.58587 15.5168 3.48046C15.5168 3.08754 15.3538 2.72337 15.0951 2.46462L14.0793 1.45837L7.77342 7.76421C7.41884 8.11879 7.20801 8.59796 7.20801 9.12504V18.7084C7.20801 19.2167 7.40994 19.7042 7.76939 20.0637C8.12883 20.4231 8.61634 20.625 9.12467 20.625H17.7497C18.5451 20.625 19.2255 20.1459 19.513 19.4559L22.4072 12.6996C22.4934 12.4792 22.5413 12.2492 22.5413 12V10.0834ZM1.45801 20.625H5.29134V9.12504H1.45801V20.625Z" fill="#F9A34B"/>
</svg>
