<svg width="24" height="24" viewBox="0 0 24 24" fill="none" xmlns="http://www.w3.org/2000/svg">
<path d="M12.1508 14C11.3522 14 10.6734 13.7205 10.1144 13.1615C9.55535 12.6024 9.27583 11.9236 9.27583 11.125V5.375C9.27583 4.57639 9.55535 3.89757 10.1144 3.33854C10.6734 2.77951 11.3522 2.5 12.1508 2.5C12.9494 2.5 13.6283 2.77951 14.1873 3.33854C14.7463 3.89757 15.0258 4.57639 15.0258 5.375V11.125C15.0258 11.9236 14.7463 12.6024 14.1873 13.1615C13.6283 13.7205 12.9494 14 12.1508 14ZM12.1508 20.7083C11.8793 20.7083 11.6519 20.6163 11.4685 20.4323C11.2845 20.249 11.1925 20.0215 11.1925 19.75V17.7375C9.70708 17.5458 8.44528 16.9309 7.40708 15.8927C6.36889 14.8545 5.73799 13.6087 5.51437 12.1552C5.46646 11.8837 5.53833 11.6441 5.73 11.4365C5.92167 11.2288 6.17722 11.125 6.49667 11.125C6.72028 11.125 6.91993 11.2087 7.09562 11.3761C7.27132 11.5441 7.38312 11.7479 7.43104 11.9875C7.63868 13.1056 8.18174 14.0399 9.06021 14.7906C9.93868 15.5413 10.9689 15.9167 12.1508 15.9167C13.3328 15.9167 14.363 15.5413 15.2415 14.7906C16.1199 14.0399 16.663 13.1056 16.8706 11.9875C16.9185 11.7479 17.0345 11.5441 17.2185 11.3761C17.4019 11.2087 17.6053 11.125 17.829 11.125C18.1324 11.125 18.38 11.2288 18.5717 11.4365C18.7633 11.6441 18.8352 11.8837 18.7873 12.1552C18.5637 13.6087 17.9328 14.8545 16.8946 15.8927C15.8564 16.9309 14.5946 17.5458 13.1092 17.7375V19.75C13.1092 20.0215 13.0175 20.249 12.8341 20.4323C12.6501 20.6163 12.4224 20.7083 12.1508 20.7083Z" fill="#F9A34B"/>
</svg>
