<svg width="45" height="40" viewBox="0 0 45 40" fill="none" xmlns="http://www.w3.org/2000/svg">
<g clip-path="url(#clip0_372_22415)">
<path d="M35.4629 11.6666C35.4629 9.83325 33.7963 8.33325 31.7592 8.33325H26.2037V11.6666H31.7592V16.0833L25.3148 23.3333H18.7963V14.9999H11.3889C7.29626 14.9999 3.98145 17.9833 3.98145 21.6666V26.6666H7.68515C7.68515 29.4333 10.1666 31.6666 13.2407 31.6666C16.3148 31.6666 18.7963 29.4333 18.7963 26.6666H27.0926L35.4629 17.2499V11.6666ZM7.68515 23.3333V21.6666C7.68515 19.8333 9.35182 18.3333 11.3889 18.3333H15.0926V23.3333H7.68515ZM13.2407 28.3333C12.2222 28.3333 11.3889 27.5833 11.3889 26.6666H15.0926C15.0926 27.5833 14.2592 28.3333 13.2407 28.3333Z" fill="#559999"/>
<path d="M18.7964 10H9.53711V13.3333H18.7964V10Z" fill="#559999"/>
<path d="M35.463 21.6665C32.389 21.6665 29.9075 23.8998 29.9075 26.6665C29.9075 29.4332 32.389 31.6665 35.463 31.6665C38.5371 31.6665 41.0186 29.4332 41.0186 26.6665C41.0186 23.8998 38.5371 21.6665 35.463 21.6665ZM35.463 28.3332C34.4445 28.3332 33.6112 27.5832 33.6112 26.6665C33.6112 25.7498 34.4445 24.9998 35.463 24.9998C36.4815 24.9998 37.3149 25.7498 37.3149 26.6665C37.3149 27.5832 36.4815 28.3332 35.463 28.3332Z" fill="#559999"/>
</g>
<defs>
<clipPath id="clip0_372_22415">
<rect width="44.4444" height="40" fill="white" transform="translate(0.277832)"/>
</clipPath>
</defs>
</svg>
