<svg width="25" height="30" viewBox="0 0 25 30" fill="none" xmlns="http://www.w3.org/2000/svg">
<path d="M12.4997 29.0833C14.1038 29.0833 15.4163 27.7708 15.4163 26.1666H9.58301C9.58301 27.7708 10.8955 29.0833 12.4997 29.0833ZM21.2497 20.3333V13.0416C21.2497 8.5645 18.8726 4.81658 14.6872 3.82492V2.83325C14.6872 1.62284 13.7101 0.645752 12.4997 0.645752C11.2893 0.645752 10.3122 1.62284 10.3122 2.83325V3.82492C6.14134 4.81658 3.74967 8.54992 3.74967 13.0416V20.3333L0.833008 23.2499V24.7083H24.1663V23.2499L21.2497 20.3333ZM18.333 21.7916H6.66634V13.0416C6.66634 9.42492 8.86842 6.47908 12.4997 6.47908C16.1309 6.47908 18.333 9.42492 18.333 13.0416V21.7916Z" fill="#666666"/>
</svg>
