<svg width="24" height="23" viewBox="0 0 24 23" fill="none" xmlns="http://www.w3.org/2000/svg">
<path d="M14.3333 5.00016V2.66683H9.66658V5.00016H14.3333ZM2.66659 7.3335V20.1668H21.3333V7.3335H2.66659ZM21.3333 5.00016C22.6283 5.00016 23.6666 6.0385 23.6666 7.3335V20.1668C23.6666 21.4618 22.6283 22.5002 21.3333 22.5002H2.66659C1.37159 22.5002 0.333252 21.4618 0.333252 20.1668L0.344919 7.3335C0.344919 6.0385 1.37159 5.00016 2.66659 5.00016H7.33325V2.66683C7.33325 1.37183 8.37158 0.333496 9.66658 0.333496H14.3333C15.6283 0.333496 16.6666 1.37183 16.6666 2.66683V5.00016H21.3333Z" fill="#F9A34B"/>
</svg>
