<svg width="30" height="30" viewBox="0 0 30 30" fill="none" xmlns="http://www.w3.org/2000/svg">
<g clip-path="url(#clip0_1433_17579)">
<path d="M5 7.5H2.5V25C2.5 26.375 3.625 27.5 5 27.5H22.5V25H5V7.5ZM25 2.5H10C8.625 2.5 7.5 3.625 7.5 5V20C7.5 21.375 8.625 22.5 10 22.5H25C26.375 22.5 27.5 21.375 27.5 20V5C27.5 3.625 26.375 2.5 25 2.5ZM25 20H10V5H25V20ZM12.5 11.25H22.5V13.75H12.5V11.25ZM12.5 15H17.5V17.5H12.5V15ZM12.5 7.5H22.5V10H12.5V7.5Z" fill="#F9A34B"/>
</g>
<defs>
<clipPath id="clip0_1433_17579">
<rect width="30" height="30" fill="white"/>
</clipPath>
</defs>
</svg>
