<svg width="108" height="130" viewBox="0 0 108 130" fill="none" xmlns="http://www.w3.org/2000/svg">
<g filter="url(#filter0_d_1331_4949)">
<path d="M54.0722 4.06466L7.59188 25.9398L7.62131 58.6898C7.64853 88.9835 27.514 117.294 54.1801 124.148C80.834 117.246 100.648 88.8999 100.621 58.6062L100.592 25.8562L54.0722 4.06466ZM90.2879 58.6155C90.3101 83.2871 74.9339 106.062 54.17 112.849C33.3939 106.1 17.9768 83.3521 17.9546 58.6805L17.9316 33.0263L54.083 16.0184L90.2649 32.9613L90.2879 58.6155ZM30.4092 61.8897L23.1311 69.5925L43.8174 91.4072L85.1115 47.7035L77.8195 39.9592L43.8035 75.9602L30.4092 61.8897Z" fill="#73B2B2"/>
</g>
<defs>
<filter id="filter0_d_1331_4949" x="0.591797" y="0.0644531" width="107.029" height="134.083" filterUnits="userSpaceOnUse" color-interpolation-filters="sRGB">
<feFlood flood-opacity="0" result="BackgroundImageFix"/>
<feColorMatrix in="SourceAlpha" type="matrix" values="0 0 0 0 0 0 0 0 0 0 0 0 0 0 0 0 0 0 127 0" result="hardAlpha"/>
<feOffset dy="3"/>
<feGaussianBlur stdDeviation="3.5"/>
<feComposite in2="hardAlpha" operator="out"/>
<feColorMatrix type="matrix" values="0 0 0 0 0 0 0 0 0 0 0 0 0 0 0 0 0 0 0.25 0"/>
<feBlend mode="normal" in2="BackgroundImageFix" result="effect1_dropShadow_1331_4949"/>
<feBlend mode="normal" in="SourceGraphic" in2="effect1_dropShadow_1331_4949" result="shape"/>
</filter>
</defs>
</svg>
