<svg width="33" height="12" viewBox="0 0 33 12" fill="none" xmlns="http://www.w3.org/2000/svg">
<path fill-rule="evenodd" clip-rule="evenodd" d="M8.72787 11.1444H6.00174L3.95748 3.05655C3.86045 2.68451 3.65443 2.3556 3.35138 2.20059C2.59508 1.81102 1.76169 1.50099 0.852539 1.34462V1.03324H5.24412C5.85022 1.03324 6.30479 1.50099 6.38056 2.04422L7.44124 7.87824L10.166 1.03324H12.8164L8.72787 11.1444ZM14.3317 11.1444H11.7571L13.8771 1.03324H16.4517L14.3317 11.1444ZM19.7826 3.83433C19.8583 3.28975 20.3129 2.97837 20.8433 2.97837C21.6767 2.90019 22.5845 3.05655 23.3421 3.44477L23.7967 1.2678C23.0391 0.956414 22.2057 0.800049 21.4494 0.800049C18.9505 0.800049 17.1322 2.20059 17.1322 4.14437C17.1322 5.62309 18.4202 6.39952 19.3293 6.86727C20.3129 7.33367 20.6917 7.64505 20.616 8.11145C20.616 8.81105 19.8583 9.12243 19.102 9.12243C18.1929 9.12243 17.2837 8.88923 16.4517 8.49966L15.9971 10.678C16.9063 11.0662 17.8898 11.2226 18.799 11.2226C21.6009 11.2994 23.3421 9.90021 23.3421 7.80007C23.3421 5.15535 19.7826 5.00033 19.7826 3.83433ZM32.3525 11.1444L30.3083 1.03324H28.1125C27.6579 1.03324 27.2033 1.34462 27.0518 1.81102L23.2663 11.1444H25.9167L26.4457 9.667H29.7022L30.0052 11.1444H32.3525ZM28.4913 3.75616L29.2476 7.56687H27.1276L28.4913 3.75616Z" fill="#172B85"/>
</svg>
